<?xml version="1.0" encoding="iso-8859-1"?>
<!-- Generator: Adobe Illustrator 19.0.0, SVG Export Plug-In . SVG Version: 6.00 Build 0)  -->
<svg version="1.1" id="Capa_1" xmlns="http://www.w3.org/2000/svg" xmlns:xlink="http://www.w3.org/1999/xlink" x="0px" y="0px"
	 viewBox="0 0 512 512" style="enable-background:new 0 0 512 512;" xml:space="preserve">
<g>
	<g>
		<g>
			<path d="M443.733,25.6c-17.171,0-31.277,16.49-42.121,42.694c-0.181-0.011-0.361-0.028-0.545-0.028H298.239
				C286.583,39.949,272.391,25.6,256,25.6c-25.261,0-43.891,35.679-55.251,85.499c-4.298-0.12-8.619-0.166-13.015-0.166
				C96.725,110.933,0,134.858,0,179.2c0,12.132,7.624,29.374,42.667,44.438v23.564c-0.001,0.029-0.007,0.058-0.008,0.087
				c-0.001,0.055,0.008,0.108,0.008,0.163v68.016c-0.001,0.029-0.007,0.058-0.008,0.087c-0.001,0.055,0.008,0.108,0.008,0.163
				v23.898C7.596,354.558,0,371.857,0,384c0,44.342,96.725,68.267,187.733,68.267c18.738,0.026,37.462-0.96,56.094-2.93
				c3.869,1.914,7.926,2.93,12.172,2.93c16.391,0,30.583-14.349,42.239-42.667h62.893c4.393,12.279,9.796,35.096,1.309,48.117
				c-5.017,7.708-14.992,11.617-29.642,11.617c-4.713,0-8.533,3.82-8.533,8.533s3.821,8.533,8.533,8.533
				c20.808,0,35.6-6.529,43.967-19.404c11.534-17.742,6.759-42.731,2.304-57.396h21.996c0.184,0,0.364-0.016,0.545-0.028
				c10.844,26.204,24.951,42.694,42.121,42.694c44.342,0,68.267-109.912,68.267-213.333S488.075,25.6,443.733,25.6z M338.33,392.533
				c-10.872-26.014-22.597-79.644-22.597-153.6s11.725-127.586,22.597-153.6h15.853c-10.757,29.607-21.383,82.98-21.383,153.6
				c0,70.62,10.626,123.993,21.383,153.6H338.33z M304.197,392.533c-10.872-26.014-22.597-79.644-22.597-153.6
				s11.724-127.586,22.597-153.6h15.853c-10.757,29.607-21.383,82.98-21.383,153.6c0,70.62,10.626,123.993,21.383,153.6H304.197z
				 M261.53,392.533c-10.872-26.014-22.597-79.644-22.597-153.6s11.724-127.586,22.597-153.6h24.387
				c-10.757,29.607-21.383,82.98-21.383,153.6c0,70.62,10.626,123.993,21.383,153.6H261.53z M187.733,247.467
				c0.019,0,0.038,0,0.057,0c0.072,5.682,0.215,11.373,0.43,17.055c-0.165,0.005-0.32,0.005-0.487,0.012
				c-66.805,0-109.928-12.99-128-22.112v-12.399C93.984,241.162,139.859,247.467,187.733,247.467z M189.081,196.259
				c-0.447,0.002-0.885,0.004-1.347,0.008c-39.442,1.017-78.765-4.756-116.25-17.067c37.485-12.311,76.808-18.084,116.25-17.067
				c1.487,0,2.952,0.01,4.41,0.024C190.831,173.296,189.81,184.718,189.081,196.259z M190.381,298.654
				c-0.882,0.007-1.765,0.013-2.648,0.013c-66.805,0-109.928-12.99-128-22.112v-15.355c24.922,10.456,68.825,20.401,128,20.401
				c0.45,0,0.897-0.003,1.347-0.003C189.441,287.319,189.876,293.01,190.381,298.654z M59.733,295.334
				c24.927,10.456,68.829,20.399,128,20.399c1.473,0,2.943-0.013,4.409-0.032c0.679,5.767,1.439,11.454,2.273,17.047
				c-2.205,0.033-4.427,0.052-6.682,0.052c-66.805,0-109.928-12.99-128-22.112V295.334z M187.733,349.867
				c3.225,0,6.389-0.032,9.517-0.102c1.076,5.82,2.243,11.496,3.498,16.999c-4.095,0.112-8.406,0.169-13.015,0.169
				c-66.805,0-109.928-12.99-128-22.112v-15.355C84.655,339.922,128.559,349.867,187.733,349.867z M59.733,363.599
				c24.922,10.456,68.825,20.401,128,20.401c6.218,0,11.935-0.1,17.316-0.298c1.667,5.898,3.454,11.52,5.354,16.83
				c-7.252,0.354-14.833,0.535-22.67,0.535c-66.805,0-109.928-12.99-128-22.112V363.599z M17.067,179.2
				c0-24.171,72.983-51.2,170.667-51.2c3.209,0,6.376,0.02,9.521,0.079c-1.028,5.556-1.975,11.242-2.839,17.035
				c-2.197-0.028-4.419-0.048-6.683-0.048c-71.342,0-120.516,14.454-140.958,26.833c-2.551,1.548-4.108,4.316-4.108,7.3
				s1.558,5.752,4.108,7.3c20.442,12.379,69.617,26.833,140.958,26.833c0.163,0,0.325-0.001,0.488-0.001
				c-0.215,5.687-0.358,11.382-0.43,17.068c-0.019,0-0.038,0-0.057,0c-50.808,0-98.967-7.258-132.117-19.913
				C31.475,201.238,17.067,189.542,17.067,179.2z M17.067,384c0-8.354,9.371-17.579,25.6-25.614v25.349
				c-0.001,0.029-0.007,0.058-0.008,0.087c-0.001,0.055,0.008,0.108,0.008,0.163V384c0,0.074,0.009,0.146,0.011,0.22
				c0.01,0.391,0.048,0.777,0.11,1.158c0.023,0.143,0.046,0.286,0.077,0.427c0.038,0.173,0.081,0.343,0.129,0.512
				c0.044,0.156,0.095,0.308,0.147,0.461c0.052,0.151,0.101,0.304,0.162,0.452c0.112,0.275,0.238,0.545,0.379,0.807
				c0.06,0.111,0.129,0.215,0.193,0.323c0.107,0.18,0.218,0.357,0.338,0.529c0.076,0.108,0.155,0.214,0.236,0.318
				c0.136,0.176,0.28,0.345,0.43,0.511c0.073,0.08,0.142,0.163,0.218,0.241c0.024,0.025,0.045,0.052,0.069,0.076
				c0.212,0.212,0.435,0.409,0.666,0.596c0.037,0.03,0.077,0.055,0.114,0.084c0.239,0.187,0.488,0.359,0.744,0.519
				c0.033,0.02,0.061,0.046,0.094,0.066c20.434,12.379,69.608,26.833,140.95,26.833c10.316,0,20.219-0.303,29.547-0.894
				c2.966,6.23,6.147,11.772,9.542,16.503c-13.004,0.981-26.043,1.476-39.089,1.458C90.05,435.2,17.067,408.171,17.067,384z
				 M265.928,430.294c-0.234,0.19-0.457,0.393-0.669,0.607c-3.175,2.808-6.302,4.299-9.259,4.299c-1.633,0-3.315-0.441-5.029-1.299
				c-0.614-0.49-1.29-0.89-2.008-1.193c-6.116-4.172-12.549-13.525-18.555-27.536c-0.003-0.008-0.007-0.016-0.01-0.024
				c-6.825-15.929-13.095-37.872-17.722-65.018c-0.039-0.344-0.095-0.681-0.173-1.01c-3.239-19.262-5.648-41.121-6.848-65.293
				c0.081-0.814,0.033-1.635-0.12-2.44c-0.478-10.405-0.734-21.228-0.734-32.454c0-11.424,0.263-22.433,0.758-33.005
				c0.067-0.472,0.105-0.952,0.092-1.445c-0.001-0.055-0.009-0.108-0.011-0.163c0.853-17.331,2.327-33.474,4.284-48.326
				c0.143-0.582,0.225-1.179,0.24-1.787C219.717,83.605,240.168,42.667,256,42.667c7.432,0,15.932,9.37,23.589,25.6H256
				c-0.054,0-0.106,0.007-0.159,0.008c-0.175,0.003-0.349,0.012-0.523,0.026c-0.12,0.01-0.239,0.021-0.357,0.035
				c-0.147,0.018-0.292,0.041-0.438,0.067c-0.141,0.025-0.281,0.051-0.419,0.082c-0.12,0.028-0.239,0.06-0.359,0.092
				c-0.153,0.042-0.305,0.085-0.454,0.135c-0.107,0.036-0.212,0.076-0.317,0.116c-0.151,0.057-0.302,0.116-0.449,0.182
				c-0.108,0.048-0.214,0.101-0.32,0.154c-0.135,0.067-0.269,0.135-0.4,0.208c-0.119,0.067-0.235,0.14-0.351,0.213
				c-0.11,0.07-0.221,0.139-0.327,0.213c-0.128,0.089-0.252,0.185-0.376,0.281c-0.088,0.069-0.177,0.137-0.263,0.21
				c-0.127,0.108-0.25,0.222-0.371,0.337c-0.077,0.074-0.155,0.147-0.229,0.223c-0.114,0.117-0.223,0.239-0.331,0.364
				c-0.077,0.089-0.153,0.177-0.227,0.269c-0.092,0.115-0.179,0.234-0.265,0.354c-0.083,0.116-0.164,0.232-0.241,0.352
				c-0.067,0.105-0.131,0.211-0.194,0.32c-0.085,0.146-0.166,0.294-0.243,0.446c-0.025,0.05-0.056,0.096-0.08,0.147
				c-12.2,25.4-26.442,84.071-26.442,165.829s14.242,140.429,26.442,165.829c0.017,0.035,0.04,0.066,0.057,0.1
				c0.162,0.326,0.338,0.643,0.539,0.943c0.004,0.006,0.007,0.012,0.011,0.017c0.199,0.295,0.421,0.573,0.654,0.841
				c0.063,0.073,0.128,0.143,0.194,0.213c0.206,0.221,0.422,0.432,0.651,0.63c0.041,0.036,0.079,0.075,0.12,0.109
				c0.269,0.224,0.554,0.429,0.849,0.619c0.069,0.044,0.139,0.085,0.208,0.127c0.258,0.156,0.525,0.299,0.8,0.428
				c0.056,0.026,0.11,0.055,0.166,0.08c0.329,0.145,0.668,0.271,1.017,0.374c0.055,0.016,0.111,0.028,0.167,0.043
				c0.293,0.08,0.593,0.144,0.898,0.193c0.091,0.015,0.18,0.03,0.272,0.041c0.357,0.046,0.719,0.077,1.089,0.077h23.589
				C275.193,418.919,270.519,425.975,265.928,430.294z M372.463,392.533c-10.872-26.014-22.597-79.644-22.597-153.6
				s11.724-127.586,22.597-153.6h22.97c-13.131,41.211-19.967,98.329-19.967,153.6c0,55.271,6.836,112.389,19.967,153.6H372.463z
				 M443.733,435.2c-21.383,0-51.2-74.667-51.2-196.267s29.817-196.267,51.2-196.267c21.383,0,51.2,74.667,51.2,196.267
				S465.117,435.2,443.733,435.2z"/>
			<path d="M451.425,73.112c-1.417-2.961-4.409-4.846-7.692-4.846c-3.283,0-6.274,1.885-7.692,4.846
				C423.258,99.779,409.6,157.346,409.6,238.933s13.658,139.154,26.442,165.821c1.417,2.962,4.409,4.847,7.692,4.846
				c3.283,0.001,6.275-1.884,7.692-4.846c12.783-26.667,26.442-84.234,26.442-165.821S464.208,99.779,451.425,73.112z
				 M443.733,376.971c-12.218-44.968-17.964-91.448-17.067-138.037c-0.898-46.59,4.849-93.069,17.067-138.038
				c12.218,44.968,17.964,91.448,17.067,138.038C461.698,285.523,455.951,332.003,443.733,376.971z"/>
		</g>
	</g>
</g>
<g>
</g>
<g>
</g>
<g>
</g>
<g>
</g>
<g>
</g>
<g>
</g>
<g>
</g>
<g>
</g>
<g>
</g>
<g>
</g>
<g>
</g>
<g>
</g>
<g>
</g>
<g>
</g>
<g>
</g>
</svg>
